<?xml version="1.0" encoding="UTF-8"?>
<svg width="512px" height="512px" viewBox="0 0 512 512" version="1.1" xmlns="http://www.w3.org/2000/svg" xmlns:xlink="http://www.w3.org/1999/xlink">
    <title>Untitled</title>
    <g id="Page-1" stroke="none" stroke-width="1" fill="none" fill-rule="evenodd">
        <g id="hard-drive-(1)" transform="translate(0.000000, 64.000000)" fill="#3EA2E7" fill-rule="nonzero">
            <path d="M44.267,192 L467.734,192 C471.425,192 474.859,190.08 476.801,186.944 C478.742,183.808 478.934,179.883 477.27,176.576 L401.195,24.341 C401.003,23.936 400.768,23.552 400.512,23.189 C393.216,9.045 378.517,0 362.667,0 L149.333,0 C133.504,0 118.826,9.045 111.53,23.104 C111.253,23.509 111.018,23.936 110.805,24.341 L34.731,176.576 C33.067,179.883 33.259,183.808 35.2,186.944 C37.141,190.059 40.576,192 44.267,192 Z" id="Path"></path>
            <path d="M469.333,213.333 L42.667,213.333 C19.136,213.333 0,232.469 0,256 L0,341.333 C0,364.864 19.136,384 42.667,384 L469.334,384 C492.864,384 512,364.864 512,341.333 L512,256 C512,232.448 492.864,213.333 469.333,213.333 Z M93,259 C115.040969,259 133,276.960906 133,299 C133,321.040969 115.039094,339 93,339 C70.9590306,339 53,321.039094 53,299 C53,276.960906 70.9590306,259 93,259 Z M194,259 C216.040969,259 234,276.960906 234,299 C234,321.040969 216.039094,339 194,339 C171.959031,339 154,321.039094 154,299 C154,276.960906 171.959031,259 194,259 Z" id="Shape"></path>
        </g>
    </g>
</svg>