<?xml version="1.0" encoding="UTF-8"?>
<svg width="223px" height="384px" viewBox="0 0 223 384" version="1.1" xmlns="http://www.w3.org/2000/svg" xmlns:xlink="http://www.w3.org/1999/xlink">
    <title>Untitled</title>
    <g id="Page-1" stroke="none" stroke-width="1" fill="none" fill-rule="evenodd">
        <g id="arrow" fill="#000000" fill-rule="nonzero">
            <path d="M124.265255,143.977381 L212.745255,55.4973806 C224.398255,44.3733806 226.356255,26.4783806 217.385255,13.0973806 C206.944255,-1.16161943 186.921255,-4.25761943 172.661255,6.18338057 C171.509255,7.02738057 170.414255,7.94738057 169.385255,8.93738057 L9.38525486,168.937381 C-3.11874514,181.427381 -3.12974514,201.688381 9.36025486,214.192381 C9.36825486,214.200381 9.37725486,214.209381 9.38525486,214.217381 L169.385255,374.217381 C181.899255,386.696381 202.160255,386.668381 214.640255,374.154381 C215.622255,373.169381 216.539255,372.121381 217.385255,371.017381 C226.356255,357.636381 224.398255,339.741381 212.745255,328.617381 L124.425255,239.977381 C122.937973,238.488515 106.408265,222.496054 74.8361319,192 C105.956524,161.834071 122.432898,145.826532 124.265255,143.977381 Z" id="Path"></path>
        </g>
    </g>
</svg>