<?xml version="1.0" encoding="UTF-8"?>
<svg width="600px" height="600px" viewBox="0 0 600 600" version="1.1" xmlns="http://www.w3.org/2000/svg" xmlns:xlink="http://www.w3.org/1999/xlink">
    <title>Untitled</title>
    <g id="Page-1" stroke="none" stroke-width="1" fill="none" fill-rule="evenodd">
        <g id="alarm" transform="translate(95.000000, 84.000000)" stroke="#000000">
            <path d="M149,423 C180.774639,435 218.107972,435 261,423" id="Path-2" stroke-width="40" stroke-linecap="round"></path>
            <path d="M400.248,284.124 C396.148,277.824 391.948,271.724 387.748,265.824 C384.648,261.324 381.648,257.124 378.748,252.824 C377.248,250.524 375.748,248.324 374.248,246.124 C366.448,234.424 358.348,222.324 350.948,210.224 C337.948,189.024 330.448,166.124 327.948,140.124 C326.148,121.024 323.448,102.024 319.748,83.624 C314.648,57.924 303.148,37.624 285.548,23.324 C265.548,6.824 236.514535,-0.724 209.8088,1 C193.543664,2.05000275 177.780813,6.824 169.88899,12.4642794 C156.471513,22.0537388 156.471513,32.7307139 160.930458,38.6583671 C171.888691,53.2260759 185.280977,33.8706713 214.558088,33.8706713 C226.118194,33.8706713 248.548,39.224 262.748,50.924 C262.748,50.924 262.848,50.924 262.848,51.024 C273.948,60.124 281.048,73.024 284.548,90.524 C287.948,107.724 290.548,125.424 292.248,143.324 C295.148,174.424 304.648,203.224 320.348,228.924 C328.148,241.524 336.448,253.924 344.448,265.924 C345.948,268.124 347.448,270.424 348.948,272.624 C352.048,277.324 355.348,281.924 358.448,286.324 C362.548,292.124 366.448,297.724 370.048,303.324 C371.548,305.624 373.948,309.924 373.448,312.824 C373.048,315.024 370.848,318.124 367.048,321.324 C359.348,327.924 349.248,331.824 339.348,334.924 C307.848,345.024 272.848,350.724 228.948,352.824 L181.248,352.824 C137.448,350.824 102.348,345.124 70.848,334.924 C61.048,331.724 50.848,327.924 43.148,321.324 C39.348,318.024 37.148,315.024 36.748,312.824 C36.248,309.924 38.748,305.624 40.148,303.324 C43.848,297.624 47.648,292.124 51.748,286.324 C54.848,281.924 58.148,277.324 61.248,272.624 C62.748,270.424 64.248,268.124 65.748,265.924 C73.748,253.924 82.048,241.524 89.848,228.924 C105.648,203.324 115.048,174.524 117.948,143.324 C119.648,125.424 122.148,107.724 125.648,90.524 C127.048,83.324 129.148,76.824 131.848,71.124 C136.048,62.124 132.248,51.424 123.248,47.124 C114.248,42.924 103.548,46.724 99.248,55.724 C95.348,64.024 92.248,73.424 90.248,83.424 C86.548,101.824 83.848,120.824 82.048,139.924 C79.648,165.824 72.148,188.824 59.048,210.024 C51.648,222.124 43.548,234.224 35.748,245.924 C34.248,248.124 32.748,250.424 31.248,252.624 C28.348,256.924 25.348,261.124 22.248,265.624 C18.148,271.524 13.848,277.624 9.748,283.924 C-5.052,307.524 -1.652,330.524 19.648,348.824 C32.148,359.624 46.348,365.124 59.848,369.524 C94.548,380.724 132.748,386.924 180.048,389.124 C180.348,389.124 180.648,389.124 180.848,389.124 L229.348,389.124 C229.648,389.124 229.948,389.124 230.148,389.124 C277.448,386.924 315.648,380.724 350.348,369.524 C363.848,365.224 378.048,359.724 390.548,348.824 C411.748,330.424 415.248,307.424 400.248,284.124 Z" id="Path" stroke-width="10" fill="#000000" fill-rule="nonzero"></path>
        </g>
    </g>
</svg>