<?xml version="1.0" encoding="UTF-8"?>
<svg width="600px" height="600px" viewBox="0 0 600 600" version="1.1" xmlns="http://www.w3.org/2000/svg" xmlns:xlink="http://www.w3.org/1999/xlink">
    <title>Untitled</title>
    <g id="Page-1" stroke="none" stroke-width="1" fill="none" fill-rule="evenodd">
        <g id="alarm" transform="translate(300.000000, 300.500000) scale(-1, 1) translate(-300.000000, -300.500000) translate(95.000000, 85.000000)" stroke="#000000">
            <path d="M148.41629,422 C180.258966,434 217.672239,434 260.656109,422" id="Path-2" stroke-width="40" stroke-linecap="round"></path>
            <path d="M400.795677,283.098595 C396.68286,276.80451 392.46973,270.710238 388.2566,264.815778 C385.146909,260.320004 382.137531,256.123948 379.228465,251.827985 C377.723776,249.530145 376.219087,247.332211 374.714397,245.134277 C366.890014,233.445263 358.764692,221.356625 351.341558,209.267987 C338.300919,188.087893 330.777473,165.209396 328.269657,139.23381 C326.46403,120.151745 323.75559,101.169586 320.044023,82.7868635 C314.92808,57.1109957 303.392129,36.8300574 285.737109,22.543485 C265.674587,6.05897849 236.550359,-1.48193397 209.761139,0.240447203 C193.445156,1.289464 177.633027,6.05897849 169.716533,11.6939616 C156.257112,21.2744166 156.257112,31.941366 160.729996,37.8634532 C171.722487,52.417483 185.156638,33.0802531 214.525274,33.0802531 C226.121518,33.0802531 248.621442,38.428555 262.865834,50.1175687 C262.865834,50.1175687 262.966146,50.1175687 262.966146,50.2174748 C274.100846,59.30893 281.223042,72.1968169 284.733983,89.6803845 C288.144612,106.864234 290.75274,124.547613 292.458054,142.430805 C295.36712,173.501603 304.896819,202.27456 320.645899,227.950427 C328.470283,240.538596 336.79623,252.926952 344.821239,264.915684 C346.325928,267.113619 347.830617,269.411459 349.335306,271.609393 C352.444997,276.30498 355.755313,280.90066 358.865004,285.296529 C362.977822,291.091083 366.890014,296.685824 370.501268,302.280566 C372.005957,304.578406 374.41346,308.874369 373.911896,311.771645 C373.510646,313.96958 371.303769,317.066669 367.491889,320.263664 C359.767818,326.857467 349.636244,330.753805 339.705295,333.850894 C308.106822,343.94141 272.997407,349.636057 228.96017,351.734086 L181.111054,351.734086 C137.174129,349.735964 101.964402,344.041316 70.3659286,333.850894 C60.5352925,330.653898 50.3034059,326.857467 42.5793347,320.263664 C38.7674554,316.966763 36.5605779,313.96958 36.1593275,311.771645 C35.6577644,308.874369 38.1655797,304.578406 39.5699563,302.280566 C43.281523,296.585918 47.0934023,291.091083 51.2062195,285.296529 C54.3159105,280.90066 57.6262267,276.30498 60.7359177,271.609393 C62.2406069,269.411459 63.7452961,267.113619 65.2499853,264.915684 C73.2749944,252.926952 81.6009413,240.538596 89.4253251,227.950427 C105.274718,202.374466 114.704104,173.601509 117.613169,142.430805 C119.318484,124.547613 121.826299,106.864234 125.337241,89.6803845 C126.741617,82.4871452 128.848182,75.9932487 131.556623,70.298601 C135.769752,61.307052 131.957873,50.6170992 122.929738,46.3211369 C113.901603,42.1250807 103.168153,45.9215125 98.8547108,54.9130615 C94.9425189,63.2052679 91.8328278,72.5964413 89.8265756,82.5870513 C86.1150089,100.969774 83.4065683,119.951933 81.6009413,139.033998 C79.1934386,164.909678 71.6699926,187.888081 58.5290402,209.068174 C51.1059068,221.156812 42.9805852,233.245451 35.1562013,244.934464 C33.6515121,247.132399 32.1468229,249.430239 30.6421337,251.628173 C27.7330679,255.924135 24.7236895,260.120192 21.6139985,264.615966 C17.5011814,270.510426 13.187739,276.604698 9.07492186,282.898782 C-5.77134491,306.476622 -2.36071605,329.455025 19.0058706,347.737842 C31.5449472,358.5277 45.7893383,364.022536 59.3315411,368.418404 C94.140018,379.607888 132.459436,385.802066 179.907302,388 C180.20824,388 180.509178,388 180.709803,388 L229.361421,388 C229.662359,388 229.963296,388 230.163922,388 C277.611788,385.802066 315.931206,379.607888 350.739683,368.418404 C364.281886,364.122442 378.526277,358.627607 391.065353,347.737842 C412.331627,329.355119 415.842569,306.376716 400.795677,283.098595 Z" id="Path" stroke-width="10" fill="#000000" fill-rule="nonzero"></path>
        </g>
    </g>
</svg>