<?xml version="1.0" encoding="UTF-8"?>
<svg width="526px" height="337px" viewBox="0 0 526 337" version="1.1" xmlns="http://www.w3.org/2000/svg" xmlns:xlink="http://www.w3.org/1999/xlink">
    <title>Untitled</title>
    <g id="Page-1" stroke="none" stroke-width="1" fill="none" fill-rule="evenodd">
        <g id="ui" transform="translate(7.000000, 6.000000)" fill="#000000" fill-rule="nonzero" stroke="#000000" stroke-width="6">
            <circle id="Oval" cx="255.5" cy="278.5" r="48.5"></circle>
            <path d="M110.305455,114.148675 C94.6098201,111.652518 79.1726481,113.405213 65.195025,118.296287 C49.3265732,123.849003 35.3444201,133.44902 25.003431,145.439888 C10.4829866,162.277214 2.02053564,181.288773 -1.3260811,200.502135 C-4.97501794,221.451157 -2.53709061,242.64453 4.78710732,261.532906 C12.2603889,280.805754 24.8192673,297.673031 41.1638154,309.459754 C56.4139842,320.457276 74.9582068,327.043687 95.7713544,327.043687 C102.431988,327.043687 108.475557,324.133514 112.845106,319.388166 C117.128742,314.736121 119.796239,308.314172 119.796239,301.210578 C119.796239,294.106984 117.128742,287.685035 112.845106,283.03299 C108.475557,278.287642 102.431988,275.377469 95.7713544,275.377469 C81.8101738,275.377469 69.1649236,269.186902 60.0005597,259.234367 C50.7501899,249.188428 45.0377556,235.314045 45.0377556,220.022567 C45.0377556,199.765116 54.7931439,182.834288 68.8335829,173.201112 C75.9840569,168.295156 84.2425069,165.2862 92.8675239,164.719642 C100.952385,164.188566 109.353995,165.808212 117.45832,169.996499 C123.808671,173.266632 127.528987,176.86818 130.701811,179.917686 C135.848782,184.864609 139.818123,188.45324 148.630919,188.45324 C153.773415,188.45324 158.317007,186.815036 162.040677,184.09927 C166.009627,181.204614 169.045031,177.070243 170.837322,172.370955 C172.605032,167.73612 173.160823,162.559016 172.24056,157.52275 C171.389754,152.866599 169.283263,148.328365 165.70442,144.441727 C162.301108,140.745717 158.701317,137.391697 154.951845,134.352817 C163.300838,97.7135587 186.640636,70.8203923 215.332835,57.6894478 C243.33107,44.8760946 276.403114,45.1937255 305.456562,62.3269049 C286.716344,73.4629485 270.248757,89.1922077 257.607744,108.687083 C252.082058,117.210195 252.15201,127.251029 255.944218,135.196964 C257.945964,139.391286 260.983187,142.996263 264.761019,145.50789 C268.348753,147.893134 272.60316,149.300982 277.297207,149.300982 C284.857222,149.300982 292.331367,145.481502 297.022942,138.24396 C313.330097,113.09293 338.742696,98.05226 364.964301,95.5084688 C383.62912,93.6547482 400.751736,97.6408072 415.415562,105.746967 C431.326003,114.542255 444.340755,128.173935 453.316929,144.426039 C462.35585,160.791751 467.302318,179.819151 466.971866,199.285697 C466.666591,217.268999 461.85391,235.626971 451.600736,252.605228 C441.75802,264.79003 427.346297,273.383254 412.780327,275.64233 C406.20926,276.661078 400.620871,280.453026 396.924694,285.804134 C393.296497,291.056825 391.501204,297.811229 392.423575,304.828617 C393.347381,311.856964 396.835207,317.838392 401.709895,321.809564 C406.648575,325.832868 413.007181,327.806804 419.64241,326.778906 C445.979047,322.696143 472.027503,306.981469 489.299358,284.700534 C489.864546,283.971112 490.392129,283.207871 490.879963,282.416261 C506.721248,256.917427 514.285787,229.10088 514.950822,201.757002 C515.665939,172.353883 508.398533,143.497702 494.870581,118.650603 C481.432799,93.9691218 461.820703,73.2478294 437.739412,59.8387454 C415.843272,47.6464101 390.250766,41.4874353 362.215448,43.9012795 C342.581162,23.1284686 319.707654,9.58927006 295.841592,2.63895068 C269.904745,-4.91442635 242.787229,-4.68532901 217.353143,2.53538308 C168.997802,16.263417 126.687612,55.2704826 110.305455,114.148675 Z" id="Path"></path>
        </g>
    </g>
</svg>