<?xml version="1.0" encoding="UTF-8"?>
<svg width="512px" height="460px" viewBox="0 0 512 460" version="1.1" xmlns="http://www.w3.org/2000/svg" xmlns:xlink="http://www.w3.org/1999/xlink">
    <title>Untitled</title>
    <g id="Page-1" stroke="none" stroke-width="1" fill="none" fill-rule="evenodd">
        <g id="favorite" fill="#000000" fill-rule="nonzero">
            <path d="M360.247598,0 C321.210907,0 284.128551,15.9040695 256.078743,44.1802187 C228.028935,15.9040695 190.94658,0 151.909889,0 C12.1019253,0 -93.4581679,204.202672 126.394515,381.521973 C187.33096,430.668486 247.396255,457.567831 249.924688,458.68908 C253.861363,460.436441 258.295123,460.437506 262.233798,458.68908 C264.761231,457.567831 324.827527,430.668486 385.763972,381.521973 C604.910534,204.772348 500.527642,0 360.247598,0 Z M360.43885,343.603709 C316.349644,378.235551 271.623647,400.643875 256.007228,408 C162.221109,363.819416 45,275.217655 45,168.242141 C45,103.594541 95.6455028,51 157.897345,51 C191.359889,51 222.904527,66.293766 244.438569,92.9587456 C250.456043,100.409355 261.549936,100.42007 267.57683,92.9587456 C289.110871,66.293766 320.65551,51 354.118053,51 C460.309325,51 540.543882,202.134669 360.43885,343.603709 Z" id="Shape"></path>
        </g>
    </g>
</svg>