<?xml version="1.0" encoding="iso-8859-1"?>
<!-- Generator: Adobe Illustrator 19.0.0, SVG Export Plug-In . SVG Version: 6.00 Build 0)  -->
<svg version="1.1" id="Capa_1" xmlns="http://www.w3.org/2000/svg" xmlns:xlink="http://www.w3.org/1999/xlink" x="0px" y="0px"
	 viewBox="0 0 512 512" style="enable-background:new 0 0 512 512;" xml:space="preserve">
<g>
	<g>
		<path d="M504.942,271.017c-4.171-0.283-7.787,2.869-8.07,7.04c-4.262,61.908-77.154,93.599-125.165,54.159
			c-16.564-13.591-36.804-45.372-47.543-63.865c0-0.01,0-0.01,0-0.01c-9.893-17.044-19.958-36.93-27.039-55.492h-0.01
			c-6.525-17.06-10.646-33.089-10.646-45.836c0-18.496,8.056-29.093,37.695-25.069c47.761,6.321,125.412,51.568,150.406,76.561
			c9,9,15.666,20.161,19.282,32.281c1.192,4.01,5.404,6.293,9.414,5.101c4.01-1.202,6.293-5.414,5.101-9.424
			c-4.323-14.524-12.312-27.897-23.09-38.675c-23.928-23.928-94.54-66.683-147.143-78.612c-3.747-21.948-16.12-40.998-33.503-53.502
			l9.686-21.1c1.737-3.798,0.071-8.303-3.727-10.05c-3.808-1.747-8.303-0.071-10.05,3.727l-9.04,19.686
			c-23.083-10.913-49.273-10.194-70.814-0.051l-9.01-19.635c-1.747-3.798-6.242-5.474-10.05-3.727
			c-3.798,1.747-5.464,6.252-3.727,10.05l9.676,21.059c-17.089,12.281-29.716,31.172-33.503,53.522
			c-17.888,4.04-36.291,11.313-50.543,17.747c-3.808,1.717-5.505,6.212-3.778,10.02c1.717,3.818,6.202,5.505,10.02,3.788
			c21.473-9.693,73.217-29.949,89.884-13.282c26.89,26.89-39.773,145.949-73.451,179.626c-14.461,14.461-33.707,22.484-54.28,22.484
			c-67.62,0-102.933-82.381-54.28-131.033c12.282-12.282,37.957-29.766,65.431-44.563c3.677-1.98,5.06-6.575,3.07-10.262
			c-1.98-3.677-6.575-5.06-10.262-3.07c-29.089,15.666-55.512,33.746-68.946,47.179c-35.906,35.906-35.929,94.053,0,129.983
			c27.451,27.451,67.285,33.483,99.954,20.06c3.757,23.655,13.969,45.957,29.645,64.299c2.727,3.182,7.505,3.545,10.686,0.828
			c3.182-2.717,3.555-7.495,0.838-10.676c-14.969-17.504-24.292-39.089-26.898-61.855c13.247-8.451,22.176-18.842,31.857-31.655
			c2.424,44.089,38.856,78.582,83.086,78.582c44.24,0,80.672-34.493,83.086-78.582c9.846,13.031,18.718,23.269,31.877,31.665
			c-9.801,86.656-110.186,132.377-182.091,81.026c-3.404-2.424-8.141-1.636-10.565,1.768c-2.434,3.404-1.646,8.131,1.757,10.565
			c79.592,56.81,190.333,8.636,205.171-85.955c58.308,23.927,122.385-16.604,126.639-78.743
			C512.265,274.926,509.114,271.31,504.942,271.017z M190.111,126.47c11.882-47.083,68.972-67.489,108.045-36.725
			c11.616,9.151,20.181,21.989,23.928,36.735c-40.249-4.209-64.062,18.04-42.664,81.915c-14.974-2.701-30.981-2.821-46.624,0
			C254.152,144.645,230.497,122.338,190.111,126.47z M226.473,225.303c18.898-5.014,39.683-5.197,59.269,0
			c9.394,22.909,22.202,46.676,35.867,68.047c-40.045-21.244-89.6-21.983-131.175,0.263
			C203.824,272.723,216.87,248.722,226.473,225.303z M256.107,382.203c-34.82,0-67.622-26.564-68.006-69.612
			c40.635-26.59,94.188-27.387,136.013-0.222C323.976,354.984,291.367,382.203,256.107,382.203z"/>
	</g>
</g>
<g>
</g>
<g>
</g>
<g>
</g>
<g>
</g>
<g>
</g>
<g>
</g>
<g>
</g>
<g>
</g>
<g>
</g>
<g>
</g>
<g>
</g>
<g>
</g>
<g>
</g>
<g>
</g>
<g>
</g>
</svg>
