<?xml version="1.0" encoding="UTF-8"?>
<svg width="384px" height="512px" viewBox="0 0 384 512" version="1.1" xmlns="http://www.w3.org/2000/svg" xmlns:xlink="http://www.w3.org/1999/xlink">
    <title>Untitled</title>
    <g id="Page-1" stroke="none" stroke-width="1" fill="none" fill-rule="evenodd">
        <g id="register-(1)" fill-rule="nonzero">
            <path d="M325.333333,512 L58.6666667,512 C26.304,512 0,485.696 0,453.333333 L0,122.666667 C0,90.304 26.304,64 58.6666667,64 L325.333333,64 C357.696,64 384,90.304 384,122.666667 L384,453.333333 C384,485.696 357.696,512 325.333333,512 Z" id="Path" fill="#3EA2E7"></path>
            <path d="M261.333333,128 L122.666667,128 C102.08,128 85.3333333,111.253333 85.3333333,90.6666667 L85.3333333,58.6666667 C85.3333333,49.8346667 92.5013333,42.6666667 101.333333,42.6666667 L135.530667,42.6666667 C142.549333,18.0693333 165.184,0 192,0 C218.816,0 241.450667,18.0693333 248.448,42.6666667 L282.666667,42.6666667 C291.498667,42.6666667 298.666667,49.8346667 298.666667,58.6666667 L298.666667,90.6666667 C298.666667,111.253333 281.92,128 261.333333,128 Z" id="Path" fill="#1976D2"></path>
            <path d="M85.3333333,64 L58.6666667,64 C26.304,64 0,90.304 0,122.666667 L0,453.333333 C0,485.696 26.304,512 58.6666667,512 L192,512 L192,128 L122.666667,128 C102.08,128 85.3333333,111.253333 85.3333333,90.6666667 L85.3333333,64 Z" id="Path" fill="#3EA2E7"></path>
            <path d="M192,0 C165.184,0 142.549333,18.0693333 135.552,42.6666667 L101.333333,42.6666667 C92.5013333,42.6666667 85.3333333,49.8346667 85.3333333,58.6666667 L85.3333333,64 L85.3333333,90.6666667 C85.3333333,111.253333 102.08,128 122.666667,128 L192,128 L192,0 Z" id="Path" fill="#1667B7"></path>
            <g id="Group" transform="translate(64.000000, 192.000000)" fill="#FFFFFF">
                <path d="M240,32 L16,32 C7.168,32 0,24.832 0,16 C0,7.168 7.168,0 16,0 L240,0 C248.832,0 256,7.168 256,16 C256,24.832 248.832,32 240,32 Z" id="Path"></path>
                <path d="M240,96 L16,96 C7.168,96 0,88.832 0,80 C0,71.168 7.168,64 16,64 L240,64 C248.832,64 256,71.168 256,80 C256,88.832 248.832,96 240,96 Z" id="Path"></path>
                <path d="M240,160 L16,160 C7.168,160 0,152.832 0,144 C0,135.168 7.168,128 16,128 L240,128 C248.832,128 256,135.168 256,144 C256,152.832 248.832,160 240,160 Z" id="Path"></path>
                <path d="M240,224 L16,224 C7.168,224 0,216.832 0,208 C0,199.168 7.168,192 16,192 L240,192 C248.832,192 256,199.168 256,208 C256,216.832 248.832,224 240,224 Z" id="Path"></path>
            </g>
            <path d="M192,192 L80,192 C71.168,192 64,199.168 64,208 C64,216.832 71.168,224 80,224 L192,224 L192,192 Z" id="Path"></path>
            <path d="M192,256 L80,256 C71.168,256 64,263.168 64,272 C64,280.832 71.168,288 80,288 L192,288 L192,256 Z" id="Path"></path>
            <path d="M192,320 L80,320 C71.168,320 64,327.168 64,336 C64,344.832 71.168,352 80,352 L192,352 L192,320 Z" id="Path"></path>
            <path d="M192,384 L80,384 C71.168,384 64,391.168 64,400 C64,408.832 71.168,416 80,416 L192,416 L192,384 Z" id="Path"></path>
        </g>
    </g>
</svg>