<?xml version="1.0" encoding="UTF-8"?>
<svg width="280px" height="328px" viewBox="0 0 280 328" version="1.1" xmlns="http://www.w3.org/2000/svg" xmlns:xlink="http://www.w3.org/1999/xlink">
    <title>Untitled</title>
    <defs>
        <path d="M62.0289355,183.728829 C62.0289355,183.728829 59.7428815,129.129377 95.8098822,88.2786005 C93.8574709,105.382511 97.0245669,122.64937 104.974093,138.241447 C104.974093,138.241447 114.681491,83.6450352 146.00643,50 C177.331368,83.6450352 187.038766,138.229286 187.038766,138.229286 C194.985899,122.640852 198.15294,105.378497 196.202977,88.2786005 C232.269978,129.141539 229.970594,183.747072 229.970594,183.747072 C229.154656,225.52325 191.802657,259 146.00643,259 C100.210202,259 62.8582033,225.52325 62.0422653,183.747072 L62.0289355,183.728829 Z" id="path-1"></path>
        <filter x="-11.8%" y="-2.4%" width="120.7%" height="109.6%" filterUnits="objectBoundingBox" id="filter-2">
            <feMorphology radius="12.5" operator="erode" in="SourceAlpha" result="shadowSpreadOuter1"></feMorphology>
            <feOffset dx="0" dy="0" in="shadowSpreadOuter1" result="shadowOffsetOuter1"></feOffset>
            <feGaussianBlur stdDeviation="17.5" in="shadowOffsetOuter1" result="shadowBlurOuter1"></feGaussianBlur>
            <feColorMatrix values="0 0 0 0 0   0 0 0 0 0   0 0 0 0 0  0 0 0 0.5 0" type="matrix" in="shadowBlurOuter1"></feColorMatrix>
        </filter>
    </defs>
    <g id="Page-1" stroke="none" stroke-width="1" fill="none" fill-rule="evenodd">
        <path d="M30,0 L259.641307,0 C270.687002,2.99453619e-14 279.641307,8.954305 279.641307,20 C279.641307,24.6361631 278.030644,29.1283237 275.084769,32.7082442 L38.9878086,319.620776 C31.2673821,329.002883 17.403039,330.349942 8.02093137,322.629516 C2.94245547,318.450497 -6.66961266e-14,312.218569 0,305.641707 L0,30 C-5.58177493e-15,13.4314575 13.4314575,3.04359188e-15 30,0 Z" id="Triangle" fill="#3EA2E7"></path>
        <g id="Path" fill-rule="nonzero">
            <use fill="black" fill-opacity="1" filter="url(#filter-2)" xlink:href="#path-1"></use>
            <use fill="#77E5FF" xlink:href="#path-1"></use>
        </g>
    </g>
</svg>