<?xml version="1.0" encoding="UTF-8"?>
<svg width="560px" height="560px" viewBox="0 0 560 560" version="1.1" xmlns="http://www.w3.org/2000/svg" xmlns:xlink="http://www.w3.org/1999/xlink">
    <title>Untitled</title>
    <g id="Page-1" stroke="none" stroke-width="1" fill="none" fill-rule="evenodd">
        <g id="trash" transform="translate(45.000000, 24.000000)" fill="#000000" fill-rule="nonzero">
            <path d="M448.333,85.333 L405.666,85.333 L341.666,85.333 L341.666,21.333 C341.667,9.557 332.131,0 320.333,0 L149.667,0 C137.87,0 128.334,9.557 128.334,21.333 L128.334,85.333 L64.334,85.333 L21.667,85.333 C9.87,85.333 0.334,94.89 0.334,106.666 C0.334,118.442 9.869,128 21.667,128 L43,128 L43,448 C43,483.285 71.715,512 107,512 L363,512 C398.285,512 427,483.285 427,448 L427,128 L448.333,128 C460.13,128 469.666,118.443 469.666,106.667 C469.666,94.891 460.131,85.333 448.333,85.333 Z M177,45 L293,45 L293,84 L177,84 L177,45 Z M380,445.250304 C380,456.683889 370.719363,466 359.28509,466 L110.713939,466 C99.279666,466 90,456.682917 90,445.250304 L90,134 L152.142788,134 L317.857212,134 L380,134 L380,445.250304 L380,445.250304 Z" id="Shape"></path>
        </g>
    </g>
</svg>