<?xml version="1.0" encoding="UTF-8"?>
<svg viewBox="0 0 143 65" version="1.1" xmlns="http://www.w3.org/2000/svg" xmlns:xlink="http://www.w3.org/1999/xlink">
    <g id="Eye" stroke="none" stroke-width="1" fill="none" fill-rule="evenodd">
        <g id="Eye" fill="#000000" fill-rule="nonzero">
            <path d="M141.37466,38.626 C140.62466,39.258 139.70966,39.566 138.80066,39.566 C137.66166,39.566 136.52966,39.082 135.73866,38.142 L125.25466,25.689 C120.68366,29.845 114.91366,33.981 107.76166,37.376 L113.74266,51.866 C114.58566,53.908 113.61366,56.247 111.57166,57.09 C111.07166,57.296 110.55466,57.394 110.04666,57.394 C108.47566,57.394 106.98466,56.462 106.34766,54.919 L100.36366,40.422 C93.0506599,42.983 84.5416599,44.719 74.7026599,45.095 L74.7026599,60.581 C74.7026599,62.79 72.9116599,64.581 70.7026599,64.581 C68.4936599,64.581 66.7026599,62.79 66.7026599,60.581 L66.7026599,45.095 C57.7336599,44.752 49.8836599,43.27 43.0236599,41.071 L37.3076599,54.919 C36.6706599,56.462 35.1806599,57.394 33.6086599,57.394 C33.0996599,57.394 32.5836599,57.296 32.0836599,57.09 C30.0416599,56.247 29.0696599,53.908 29.9126599,51.866 L35.5356599,38.243 C28.1756599,35.001 22.2086599,30.957 17.4406599,26.829 L7.91665994,38.142 C7.12565994,39.081 5.99365994,39.566 4.85465994,39.566 C3.94465994,39.566 3.03065994,39.257 2.28065994,38.626 C0.590659937,37.203 0.373659937,34.68 1.79665994,32.99 L11.6806599,21.25 C4.51965994,13.464 1.46565994,6.624 1.18065994,5.961 C0.308659937,3.932 1.24665994,1.579 3.27665994,0.707 C5.30565994,-0.167 7.65865994,0.773 8.53065994,2.803 C8.80165994,3.423 11.9166599,10.294 19.3826599,17.732 C19.4856599,17.803 19.5946599,17.861 19.6926599,17.943 C19.9556599,18.165 20.1706599,18.42 20.3616599,18.687 C25.5036599,23.589 32.5516599,28.623 41.9316599,32.202 C42.0576599,32.24 42.1846599,32.264 42.3096599,32.315 C42.3596599,32.336 42.4016599,32.368 42.4506599,32.391 C50.2166599,35.285 59.5426599,37.185 70.7016599,37.185 C117.55566,37.185 132.72466,3.145 132.87166,2.801 C133.74366,0.772 136.09766,-0.17 138.12566,0.705 C140.15566,1.577 141.09366,3.93 140.22166,5.959 C139.95266,6.585 137.21066,12.719 130.88166,19.953 L141.85566,32.988 C143.28166,34.68 143.06466,37.203 141.37466,38.626 Z" />
        </g>
    </g>
</svg>