<?xml version="1.0" encoding="UTF-8"?>
<svg width="301px" height="304px" viewBox="0 0 301 304" version="1.1" xmlns="http://www.w3.org/2000/svg" xmlns:xlink="http://www.w3.org/1999/xlink">
    <title>Untitled</title>
    <g id="Type" stroke="none" stroke-width="1" fill="none" fill-rule="evenodd">
        <g transform="translate(9.000000, 0.000000)">
            <path d="M230.431,0 C216.028,0 203.163,7.72292758 194.768,19.758255 C186.372,7.72292758 173.507,0 159.1,0 C153.522,0 149,5.20966465 149,11.6344954 C149,18.0581743 153.521,23.2689908 159.1,23.2689908 C173.2,23.2689908 184.668,36.5056625 184.668,52.7808253 L184.668,251.220327 C184.668,267.494338 173.199,280.731009 159.1,280.731009 C153.522,280.731009 149,285.940674 149,292.365505 C149,298.791487 153.521,304 159.1,304 C173.507,304 186.373,296.277072 194.768,284.241745 C203.163,296.277072 216.028,304 230.431,304 C236.01,304 240.532,298.792639 240.532,292.365505 C240.532,285.941826 236.01,280.731009 230.431,280.731009 C216.337,280.731009 204.869,267.494338 204.869,251.220327 L204.869,52.7796735 C204.869,36.5045106 216.337,23.2678389 230.431,23.2678389 C236.01,23.2678389 240.532,18.0581743 240.532,11.6333436 C240.532,5.21081646 236.01,0 230.431,0 Z" id="Cursor" fill="#000000" fill-rule="nonzero"></path>
            <polyline id="Left-Rect" stroke="#000000" stroke-width="18" stroke-linecap="round" stroke-linejoin="round" points="149 80 0 80 0 224 149 224"></polyline>
            <polyline id="Right-Rect" stroke="#000000" stroke-width="18" stroke-linecap="round" stroke-linejoin="round" transform="translate(262.000000, 152.000000) rotate(180.000000) translate(-262.000000, -152.000000) " points="283 80 241 80 241 224 283 224"></polyline>
        </g>
    </g>
</svg>