<?xml version="1.0" encoding="UTF-8"?>
<svg width="529px" height="655px" viewBox="0 0 529 655" version="1.1" xmlns="http://www.w3.org/2000/svg" xmlns:xlink="http://www.w3.org/1999/xlink">
    <title>Untitled</title>
    <defs>
        <filter id="filter-1">
            <feColorMatrix in="SourceGraphic" type="matrix" values="0 0 0 0 0.000000 0 0 0 0 0.000000 0 0 0 0 0.000000 0 0 0 1.000000 0"></feColorMatrix>
        </filter>
    </defs>
    <g id="Page-1" stroke="none" stroke-width="1" fill="none" fill-rule="evenodd">
        <g id="CreateFile" transform="translate(57.000000, 71.000000)">
            <path d="M180,492 C180,503.046875 171.046875,512 160,512 L80,512 C35.886719,512 0,476.113281 0,432 L0,144.855469 C0,124.089844 8.050781,104.535156 22.667969,89.789062 L88.710938,23.15625 C103.296875,8.441406 123.546875,0 144.269531,0 L325.890625,0 C370,0 405.890625,35.886719 405.890625,80 L406,213.55343 C406,224.600305 396.959641,233.801118 385.916672,233.801118 C374.869797,233.801118 365.890625,224.600305 365.890625,213.55343 L365.890625,80 C365.890625,57.945312 347.945312,40 325.890625,40 L144.269531,40 C134.144531,40 124.246094,44.125 117.121094,51.316406 L51.078125,117.945312 C47.847656,121.203125 45.28125,124.945312 43.433594,129 L99,129 C115.542969,129 129,115.539062 129,99 C129,87.953125 137.953125,79 149,79 C160.046875,79 169,87.953125 169,99 C169,137.597656 137.597656,169 99,169 L40,169 L40,432 C40,454.054688 57.945312,472 80,472 L160,472 C171.046875,472 180,480.953125 180,492 Z" id="Shape" fill="#000000" fill-rule="nonzero"></path>
            <g filter="url(#filter-1)" id="add">
                <g transform="translate(203.000000, 282.000000)">
                    <path d="M193.571429,87.0714286 L129.214286,87.0714286 C127.12364,87.0714286 125.428571,85.3763603 125.428571,83.2857143 L125.428571,18.9285714 C125.428571,8.47534168 116.95323,0 106.5,0 C96.0467703,0 87.5714286,8.47534168 87.5714286,18.9285714 L87.5714286,83.2857143 C87.5714286,85.3763603 85.8763603,87.0714286 83.7857143,87.0714286 L19.4285714,87.0714286 C8.97534168,87.0714286 0.5,95.5467703 0.5,106 C0.5,116.45323 8.97534168,124.928571 19.4285714,124.928571 L83.7857143,124.928571 C85.8763603,124.928571 87.5714286,126.62364 87.5714286,128.714286 L87.5714286,193.071429 C87.5714286,203.524658 96.0467703,212 106.5,212 C116.95323,212 125.428571,203.524658 125.428571,193.071429 L125.428571,128.714286 C125.428571,126.62364 127.12364,124.928571 129.214286,124.928571 L193.571429,124.928571 C204.024658,124.928571 212.5,116.45323 212.5,106 C212.5,95.5467703 204.024658,87.0714286 193.571429,87.0714286 Z" id="Path" stroke="#000000" stroke-width="15" fill="#000000" fill-rule="nonzero"></path>
                </g>
            </g>
        </g>
    </g>
</svg>