<?xml version="1.0" encoding="UTF-8"?>
<svg width="512px" height="471px" viewBox="0 0 512 471" version="1.1" xmlns="http://www.w3.org/2000/svg" xmlns:xlink="http://www.w3.org/1999/xlink">
    <title>CreatFolder</title>
    <defs>
        <filter id="filter-1">
            <feColorMatrix in="SourceGraphic" type="matrix" values="0 0 0 0 0.000000 0 0 0 0 0.000000 0 0 0 0 0.000000 0 0 0 1.000000 0"></feColorMatrix>
        </filter>
    </defs>
    <g id="Page-1" stroke="none" stroke-width="1" fill="none" fill-rule="evenodd">
        <g id="CreatFolder" transform="translate(0.001000, 0.463000)">
            <g filter="url(#filter-1)" id="add">
                <g transform="translate(281.999000, 225.537000)">
                    <path d="M193.571429,87.0714286 L129.214286,87.0714286 C127.12364,87.0714286 125.428571,85.3763603 125.428571,83.2857143 L125.428571,18.9285714 C125.428571,8.47534168 116.95323,0 106.5,0 C96.0467703,0 87.5714286,8.47534168 87.5714286,18.9285714 L87.5714286,83.2857143 C87.5714286,85.3763603 85.8763603,87.0714286 83.7857143,87.0714286 L19.4285714,87.0714286 C8.97534168,87.0714286 0.5,95.5467703 0.5,106 C0.5,116.45323 8.97534168,124.928571 19.4285714,124.928571 L83.7857143,124.928571 C85.8763603,124.928571 87.5714286,126.62364 87.5714286,128.714286 L87.5714286,193.071429 C87.5714286,203.524658 96.0467703,212 106.5,212 C116.95323,212 125.428571,203.524658 125.428571,193.071429 L125.428571,128.714286 C125.428571,126.62364 127.12364,124.928571 129.214286,124.928571 L193.571429,124.928571 C204.024658,124.928571 212.5,116.45323 212.5,106 C212.5,95.5467703 204.024658,87.0714286 193.571429,87.0714286 Z" id="Path" stroke="#000000" stroke-width="15" fill="#000000" fill-rule="nonzero"></path>
                </g>
            </g>
            <path d="M491.989819,203.055619 C503.035819,203.055619 512,192.826649 512,181.780649 L512,122.037 C512,106.01 505.759,90.942 494.426,79.61 C483.094,68.28 468.03,62.041 452.01,62.041 L451.999,62.041 L233.961,62.037 C225.778,26.565 193.937,0.032 156.02,0.024 L80,0 C35.888,0 0,35.888 0,80 L0,389.074 C0,433.186 35.888,469.074 80,469.074 L256,469.074 C265.6388,469.074 280.012505,466.158898 280.012505,449.424861 C280.012505,432.690824 265.6388,429.074 256,429.074 L80,429.074 C57.944,429.074 40,411.13 40,389.075 L40,80 C40,79.951 40,79.957 40.001,79.974 C40.015,57.93 57.953,40 79.993,40 L156.009,40.024 C178.06,40.029 196,57.972 196,80.024 L196,82.037 C196,93.083 204.954,102.037 216,102.037 L452.003,102.041 C457.344,102.04 462.365,104.119 466.143,107.896 C469.92,111.672 472,116.695 472,122.037 L472,181.780649 C472,192.826649 480.943819,203.055619 491.989819,203.055619 Z" id="Path" fill="#000000" fill-rule="nonzero"></path>
        </g>
    </g>
</svg>