<?xml version="1.0" encoding="UTF-8"?>
<svg width="529px" height="655px" viewBox="0 0 529 655" version="1.1" xmlns="http://www.w3.org/2000/svg" xmlns:xlink="http://www.w3.org/1999/xlink">
    <title>Untitled</title>
    <defs>
        <filter id="filter-1">
            <feColorMatrix in="SourceGraphic" type="matrix" values="0 0 0 0 0.000000 0 0 0 0 0.000000 0 0 0 0 0.000000 0 0 0 1.000000 0"></feColorMatrix>
        </filter>
    </defs>
    <g id="Page-1" stroke="none" stroke-width="1" fill="none" fill-rule="evenodd">
        <g id="CreateFile" transform="translate(61.000000, 72.000000)">
            <path d="M180,492 C180,503.046875 171.046875,512 160,512 L80,512 C35.886719,512 0,476.113281 0,432 L0,144.855469 C0,124.089844 8.050781,104.535156 22.667969,89.789062 L88.710938,23.15625 C103.296875,8.441406 123.546875,0 144.269531,0 L325.890625,0 C370,0 405.890625,35.886719 405.890625,80 L406,213.55343 C406,224.600305 396.959641,233.801118 385.916672,233.801118 C374.869797,233.801118 365.890625,224.600305 365.890625,213.55343 L365.890625,80 C365.890625,57.945312 347.945312,40 325.890625,40 L144.269531,40 C134.144531,40 124.246094,44.125 117.121094,51.316406 L51.078125,117.945312 C47.847656,121.203125 45.28125,124.945312 43.433594,129 L99,129 C115.542969,129 129,115.539062 129,99 C129,87.953125 137.953125,79 149,79 C160.046875,79 169,87.953125 169,99 C169,137.597656 137.597656,169 99,169 L40,169 L40,432 C40,454.054688 57.945312,472 80,472 L160,472 C171.046875,472 180,480.953125 180,492 Z" id="Shape" fill="#000000" fill-rule="nonzero"></path>
            <g filter="url(#filter-1)" id="up-arrow">
                <g transform="translate(187.000000, 266.000000)">
                    <path d="M97.6497845,1.37848749 C95.9126483,-0.459495829 93.0965274,-0.459495829 91.3589742,1.37848749 L6.83113686,90.8353955 C-2.27704562,100.474656 -2.27704562,116.103252 6.83113686,125.742512 C15.9393193,135.381773 30.7068538,135.381773 39.8150363,125.742512 L72.2558981,91.4100963 L72.2558981,202.458894 C72.2558981,215.460287 82.2149228,226 94.5,226 C106.785077,226 116.744102,215.460287 116.744102,202.458894 L116.744102,91.4096549 L149.184964,125.742071 C158.293146,135.381331 173.060681,135.381331 182.168863,125.742071 C191.277046,116.102811 191.277046,100.474214 182.168863,90.8349541 L97.6497845,1.37848749 Z" id="Path" fill="#455A64" fill-rule="nonzero"></path>
                </g>
            </g>
        </g>
    </g>
</svg>