<?xml version="1.0" encoding="UTF-8"?>
<svg width="538px" height="470px" viewBox="0 0 538 470" version="1.1" xmlns="http://www.w3.org/2000/svg" xmlns:xlink="http://www.w3.org/1999/xlink">
    <title>Untitled</title>
    <defs>
        <filter id="filter-1">
            <feColorMatrix in="SourceGraphic" type="matrix" values="0 0 0 0 0.000000 0 0 0 0 0.000000 0 0 0 0 0.000000 0 0 0 1.000000 0"></feColorMatrix>
        </filter>
    </defs>
    <g id="Page-1" stroke="none" stroke-width="1" fill="none" fill-rule="evenodd">
        <path d="M491.990819,203.518619 C503.036819,203.518619 512.001,193.289649 512.001,182.243649 L512.001,122.5 C512.001,106.473 505.76,91.405 494.427,80.073 C483.095,68.743 468.031,62.504 452.011,62.504 L452,62.504 L233.962,62.5 C225.779,27.028 193.938,0.495 156.021,0.487 L80.001,0.463 C35.889,0.463 0.001,36.351 0.001,80.463 L0.001,389.537 C0.001,433.649 35.889,469.537 80.001,469.537 L256.001,469.537 C265.6398,469.537 280.013505,466.621898 280.013505,449.887861 C280.013505,433.153824 265.6398,429.537 256.001,429.537 L80.001,429.537 C57.945,429.537 40.001,411.593 40.001,389.538 L40.001,80.463 C40.001,80.414 40.001,80.42 40.002,80.437 C40.016,58.393 57.954,40.463 79.994,40.463 L156.01,40.487 C178.061,40.492 196.001,58.435 196.001,80.487 L196.001,82.5 C196.001,93.546 204.955,102.5 216.001,102.5 L452.004,102.504 C457.345,102.503 462.366,104.582 466.144,108.359 C469.921,112.135 472.001,117.158 472.001,122.5 L472.001,182.243649 C472.001,193.289649 480.944819,203.518619 491.990819,203.518619 Z" id="Path" fill="#000000" fill-rule="nonzero"></path>
        <g filter="url(#filter-1)" id="up-arrow">
            <g transform="translate(295.000000, 222.000000)">
                <path d="M97.6497845,1.37848749 C95.9126483,-0.459495829 93.0965274,-0.459495829 91.3589742,1.37848749 L6.83113686,90.8353955 C-2.27704562,100.474656 -2.27704562,116.103252 6.83113686,125.742512 C15.9393193,135.381773 30.7068538,135.381773 39.8150363,125.742512 L72.2558981,91.4100963 L72.2558981,202.458894 C72.2558981,215.460287 82.2149228,226 94.5,226 C106.785077,226 116.744102,215.460287 116.744102,202.458894 L116.744102,91.4096549 L149.184964,125.742071 C158.293146,135.381331 173.060681,135.381331 182.168863,125.742071 C191.277046,116.102811 191.277046,100.474214 182.168863,90.8349541 L97.6497845,1.37848749 Z" id="Path" fill="#455A64" fill-rule="nonzero"></path>
            </g>
        </g>
    </g>
</svg>