<?xml version="1.0" encoding="UTF-8"?>
<svg width="520px" height="512px" viewBox="0 0 520 512" version="1.1" xmlns="http://www.w3.org/2000/svg" xmlns:xlink="http://www.w3.org/1999/xlink">
    <title>Untitled</title>
    <g id="Page-1" stroke="none" stroke-width="1" fill="none" fill-rule="evenodd">
        <g id="layout" fill="#FFFFFF" fill-rule="nonzero">
            <path d="M70,0.5 C50.83885,0.5 33.4639734,8.29463339 20.8793034,20.8793034 C8.29463339,33.4639734 0.5,50.83885 0.5,70 L0.5,442 C0.5,461.16115 8.29463339,478.536027 20.8793034,491.120697 C33.4639734,503.705367 50.83885,511.5 70,511.5 L94,511.5 C113.16115,511.5 130.536027,503.705367 143.120697,491.120697 C155.705367,478.536027 163.5,461.16115 163.5,442 L163.5,70 C163.5,50.83885 155.705367,33.4639734 143.120697,20.8793034 C130.536027,8.29463339 113.16115,0.5 94,0.5 L70,0.5 Z" id="Shape" stroke="#979797"></path>
            <path d="M450,0 L284,0 C245.402,0 214,31.402 214,70 L214,94 C214,132.598 245.402,164 284,164 L450,164 C488.598,164 520,132.598 520,94 L520,70 C520,31.402 488.598,0 450,0 Z" id="Shape"></path>
            <path d="M450,214 L284,214 C245.402,214 214,244.681298 214,282.393443 L214,443.606557 C214,481.318702 245.402,512 284,512 L450,512 C488.598,512 520,481.318702 520,443.606557 C520,441.61342 520,376.719079 520,345.901639 C520,295.638349 480,285.98586 480,333.021948 C480,384.369914 480,388.663144 480,345.901639 C480,356.694125 488.954,365.442623 500,365.442623 C511.046,365.442623 520,356.694125 520,345.901639 L520,282.393443 C520,244.681298 488.598,214 450,214 Z" id="Path"></path>
        </g>
    </g>
</svg>