<?xml version="1.0" encoding="UTF-8"?>
<svg width="306px" height="315px" viewBox="0 0 306 315" version="1.1" xmlns="http://www.w3.org/2000/svg" xmlns:xlink="http://www.w3.org/1999/xlink">
    <title>Untitled</title>
    <g id="Page-1" stroke="none" stroke-width="1" fill="none" fill-rule="evenodd">
        <g id="Dashboard" fill-rule="nonzero" stroke="#FFFFFF" stroke-width="25">
            <path d="M284.7577,15.0296555 C281.115835,13.081965 277.374538,12.5 267.541722,12.5 L210.885309,12.5009296 C201.458163,12.5315643 197.803175,13.1252786 194.2423,15.0296555 C191.563988,16.4620326 189.462033,18.5639878 188.029656,21.2423002 C186.081965,24.8841649 185.5,28.6254622 185.5,38.458278 L185.50093,142.114737 C185.531566,151.541849 186.125282,155.19683 188.029656,158.7577 C189.462033,161.436012 191.563988,163.537967 194.2423,164.970344 C197.884165,166.918035 201.625462,167.5 211.458278,167.5 L267.541722,167.5 C277.374538,167.5 281.115835,166.918035 284.7577,164.970344 C287.436012,163.537967 289.537967,161.436012 290.970344,158.7577 C292.918035,155.115835 293.5,151.374538 293.5,141.541722 L293.5,38.458278 C293.5,28.6254622 292.918035,24.8841649 290.970344,21.2423002 C289.537967,18.5639878 287.436012,16.4620326 284.7577,15.0296555 Z" id="Rectangle"></path>
            <rect id="Rectangle" x="12.5" y="147.5" width="108" height="155" rx="30"></rect>
            <rect id="Rectangle" x="185.5" y="232.5" width="108" height="70" rx="30"></rect>
            <rect id="Rectangle" x="12.5" y="12.5" width="108" height="70" rx="30"></rect>
        </g>
    </g>
</svg>