<?xml version="1.0" encoding="UTF-8"?>
<svg width="520px" height="512px" viewBox="0 0 520 512" version="1.1" xmlns="http://www.w3.org/2000/svg" xmlns:xlink="http://www.w3.org/1999/xlink">
    <title>Untitled</title>
    <g id="Page-1" stroke="none" stroke-width="1" fill="none" fill-rule="evenodd">
        <g id="layout" fill="#FFFFFF" fill-rule="nonzero">
            <path d="M94,0.5 C113.16115,0.5 130.536027,8.29463339 143.120697,20.8793034 C155.705367,33.4639734 163.5,50.83885 163.5,70 L163.5,70 L163.5,442 C163.5,461.16115 155.705367,478.536027 143.120697,491.120697 C130.536027,503.705367 113.16115,511.5 94,511.5 L94,511.5 L70,511.5 C50.83885,511.5 33.4639734,503.705367 20.8793034,491.120697 C8.29463339,478.536027 0.5,461.16115 0.5,442 L0.5,442 L0.5,70 C0.5,50.83885 8.29463339,33.4639734 20.8793034,20.8793034 C33.4639734,8.29463339 50.83885,0.5 70,0.5 L70,0.5 Z M94,39.5 L70,39.5 C61.59115,39.5 53.9660266,42.9203666 48.4431966,48.4431966 C42.9203666,53.9660266 39.5,61.59115 39.5,70 L39.5,442 C39.5,450.40885 42.9203666,458.033973 48.4431966,463.556803 C53.9660266,469.079633 61.59115,472.5 70,472.5 L94,472.5 C102.40885,472.5 110.033973,469.079633 115.556803,463.556803 C121.079633,458.033973 124.5,450.40885 124.5,442 L124.5,70 C124.5,61.59115 121.079633,53.9660266 115.556803,48.4431966 C110.033973,42.9203666 102.40885,39.5 94,39.5 Z" id="Shape" stroke="#979797"></path>
            <path d="M450,0 L284,0 C245.402,0 214,31.402 214,70 L214,94 C214,132.598 245.402,164 284,164 L450,164 C488.598,164 520,132.598 520,94 L520,70 C520,31.402 488.598,0 450,0 Z M480,94 C480,110.542 466.542,124 450,124 L284,124 C267.458,124 254,110.542 254,94 L254,70 C254,53.458 267.458,40 284,40 L450,40 C466.542,40 480,53.458 480,70 L480,94 Z" id="Shape"></path>
            <path d="M450,214 L284,214 C245.402,214 214,244.681298 214,282.393443 L214,443.606557 C214,481.318702 245.402,512 284,512 L450,512 C488.598,512 520,481.318702 520,443.606557 C520,432.814072 511.046,424.065574 500,424.065574 C488.954,424.065574 480,432.814072 480,443.606557 C480,459.768905 466.542,472.918033 450,472.918033 L284,472.918033 C267.458,472.918033 254,459.768905 254,443.606557 L254,282.393443 C254,266.231095 267.458,253.081967 284,253.081967 L450,253.081967 C466.542,253.081967 480,266.231095 480,282.393443 L480,345.901639 C480,356.694125 488.954,365.442623 500,365.442623 C511.046,365.442623 520,356.694125 520,345.901639 L520,282.393443 C520,244.681298 488.598,214 450,214 Z" id="Path"></path>
        </g>
    </g>
</svg>