<?xml version="1.0" encoding="UTF-8"?>
<svg width="173px" height="184px" viewBox="0 0 173 184" version="1.1" xmlns="http://www.w3.org/2000/svg" xmlns:xlink="http://www.w3.org/1999/xlink">
    <title>Untitled</title>
    <g id="Page-1" stroke="none" stroke-width="1" fill="none" fill-rule="evenodd">
        <g id="Files" fill="#FFFFFF" fill-rule="nonzero">
            <path d="M97.5948167,0 C104.474892,0 111.052644,2.16186535 116.114335,6.09440104 L164.208175,43.4806318 C169.794485,47.8212076 173,53.9773765 173,60.3787432 L173,168.666667 C173,177.12321 164.832828,184 154.789474,184 L18.2105263,184 C8.1671718,184 -1.98951966e-13,177.12321 -1.98951966e-13,168.666667 L-1.98951966e-13,15.3333333 C-1.98951966e-13,6.87679012 8.1671718,0 18.2105263,0 L97.5948167,0 Z M76.7444592,19 L68.2555408,19 C64.6894658,19 63.3963209,19.3713024 62.0926172,20.0685308 C60.7889135,20.7657592 59.7657592,21.7889135 59.0685308,23.0926172 C58.3713024,24.3963209 58,25.6894658 58,29.2555408 L58,29.2555408 L58,58.7444592 C58,62.3105342 58.3713024,63.6036791 59.0685308,64.9073828 C59.7657592,66.2110865 60.7889135,67.2342408 62.0926172,67.9314692 C63.3963209,68.6286976 64.6894658,69 68.2555408,69 L68.2555408,69 L76.7444592,69 C80.3105342,69 81.6036791,68.6286976 82.9073828,67.9314692 C84.2110865,67.2342408 85.2342408,66.2110865 85.9314692,64.9073828 C86.6286976,63.6036791 87,62.3105342 87,58.7444592 L87,58.7444592 L87,29.2555408 C87,25.6894658 86.6286976,24.3963209 85.9314692,23.0926172 C85.2342408,21.7889135 84.2110865,20.7657592 82.9073828,20.0685308 C81.6036791,19.3713024 80.3105342,19 76.7444592,19 L76.7444592,19 Z M37.7444592,19 L29.2555408,19 C25.6894658,19 24.3963209,19.3713024 23.0926172,20.0685308 C21.7889135,20.7657592 20.7657592,21.7889135 20.0685308,23.0926172 C19.3713024,24.3963209 19,25.6894658 19,29.2555408 L19,29.2555408 L19,58.7444592 C19,62.3105342 19.3713024,63.6036791 20.0685308,64.9073828 C20.7657592,66.2110865 21.7889135,67.2342408 23.0926172,67.9314692 C24.3963209,68.6286976 25.6894658,69 29.2555408,69 L29.2555408,69 L37.7444592,69 C41.3105342,69 42.6036791,68.6286976 43.9073828,67.9314692 C45.2110865,67.2342408 46.2342408,66.2110865 46.9314692,64.9073828 C47.6286976,63.6036791 48,62.3105342 48,58.7444592 L48,58.7444592 L48,29.2555408 C48,25.6894658 47.6286976,24.3963209 46.9314692,23.0926172 C46.2342408,21.7889135 45.2110865,20.7657592 43.9073828,20.0685308 C42.6036791,19.3713024 41.3105342,19 37.7444592,19 L37.7444592,19 Z" id="Shape"></path>
        </g>
    </g>
</svg>