<?xml version="1.0" encoding="UTF-8"?>
<svg width="235px" height="262px" viewBox="0 0 235 262" version="1.1" xmlns="http://www.w3.org/2000/svg" xmlns:xlink="http://www.w3.org/1999/xlink">
    <title>Untitled</title>
    <g id="Page-1" stroke="none" stroke-width="1" fill="none" fill-rule="evenodd">
        <g id="Files" fill="#FFFFFF" fill-rule="nonzero">
            <path d="M132.570994,0 C141.916761,0 150.851857,3.07830827 157.727565,8.67789713 L223.057348,61.9126388 C230.645688,68.0932413 235,76.8590905 235,85.97408 L235,240.166667 C235,252.208049 223.905865,262 210.263158,262 L24.7368421,262 C11.0941351,262 0,252.208049 0,240.166667 L0,21.8333333 C0,9.79195115 11.0941351,0 24.7368421,0 L132.570994,0 Z M127.135914,28.4782609 L43.6111956,28.4782609 C33.0440122,28.4782609 24.4508671,36.2479612 24.4508671,45.8025362 L24.4508671,45.8025362 L24.4508671,219.04529 C24.4508671,228.599865 33.0440122,236.369565 43.6111956,236.369565 L43.6111956,236.369565 L187.31366,236.369565 C197.880843,236.369565 206.473988,228.599865 206.473988,219.04529 L206.473988,219.04529 L206.473988,96.6968243 C206.473988,89.4642783 203.101284,82.5087675 197.22361,77.6045938 L197.22361,77.6045938 L146.621351,35.3639836 C141.295658,30.9208316 134.374832,28.4782609 127.135914,28.4782609 L127.135914,28.4782609 Z" id="Shape"></path>
            <path d="M64.9153445,45 L54.0846555,45 C49.5348357,45 47.8849611,45.4307108 46.221615,46.2394957 C44.5582689,47.0482807 43.2528652,48.2351397 42.3632979,49.747436 C41.4737306,51.2597322 41,52.7597803 41,56.8964273 L41,56.8964273 L41,91.1035727 C41,95.2402197 41.4737306,96.7402678 42.3632979,98.252564 C43.2528652,99.7648603 44.5582689,100.951719 46.221615,101.760504 C47.8849611,102.569289 49.5348357,103 54.0846555,103 L54.0846555,103 L64.9153445,103 C69.4651643,103 71.1150389,102.569289 72.778385,101.760504 C74.4417311,100.951719 75.7471348,99.7648603 76.6367021,98.252564 C77.5262694,96.7402678 78,95.2402197 78,91.1035727 L78,91.1035727 L78,56.8964273 C78,52.7597803 77.5262694,51.2597322 76.6367021,49.747436 C75.7471348,48.2351397 74.4417311,47.0482807 72.778385,46.2394957 C71.1150389,45.4307108 69.4651643,45 64.9153445,45 L64.9153445,45 Z" id="Shape-path"></path>
            <path d="M115.915344,45 L105.084656,45 C100.534836,45 98.8849611,45.4307108 97.221615,46.2394957 C95.5582689,47.0482807 94.2528652,48.2351397 93.3632979,49.747436 C92.4737306,51.2597322 92,52.7597803 92,56.8964273 L92,56.8964273 L92,91.1035727 C92,95.2402197 92.4737306,96.7402678 93.3632979,98.252564 C94.2528652,99.7648603 95.5582689,100.951719 97.221615,101.760504 C98.8849611,102.569289 100.534836,103 105.084656,103 L105.084656,103 L115.915344,103 C120.465164,103 122.115039,102.569289 123.778385,101.760504 C125.441731,100.951719 126.747135,99.7648603 127.636702,98.252564 C128.526269,96.7402678 129,95.2402197 129,91.1035727 L129,91.1035727 L129,56.8964273 C129,52.7597803 128.526269,51.2597322 127.636702,49.747436 C126.747135,48.2351397 125.441731,47.0482807 123.778385,46.2394957 C122.115039,45.4307108 120.465164,45 115.915344,45 L115.915344,45 Z" id="Shape-path"></path>
        </g>
    </g>
</svg>